<svg version="1.2" xmlns="http://www.w3.org/2000/svg" viewBox="0 0 5000 5000" width="1200" height="1200">
	<title>azurite_logo</title>
	<defs>
		<clipPath clipPathUnits="userSpaceOnUse" id="cp1">
			<path d="m1884.46 3057.53l-470.64-376.51h-376.64v918.37l373.21 373.21h481.14l-74.07-111.1zm1019.73 875.93h458.72l609.7-645.56v-411.19h-804.23zm-1421.73-1448.14l421.58 337.26 96.14-1153.69-396.87-396.88h-566.13v661.83l275.74 551.48zm2216.17-469.67c-81.54 0-65.24 0-146.77 0-81.54 0-168.23 0-168.23 0 0 0.01-166.34 665.36-166.34 665.36h288.95l192.39-320.64zm-1680.48 1794.08c0 0 236.14 354.22 246.27 369.4 0.34-0.17 430.43-215.22 430.43-215.22l573.25-2292.99v-790.3h-632.57l-426.62 639.93z"/>
		</clipPath>
	</defs>
	<style>
		.s0 { fill: #ffffff } 
		.s1 { fill: #090e94 } 
		.s2 { fill: #0a0faa } 
		.s3 { fill: #0b12cf } 
		.s4 { fill: #0c14ed } 
	</style>
	<path fill-rule="evenodd" class="s0" d="m5009.8 0v5009.8h-5009.8v-5009.8z"/>
	<g>
		<g clip-path="url(#cp1)">
			<path fill-rule="evenodd" class="s0" d="m1884.5 3057.5l-470.7-376.5h-376.6v918.4l373.2 373.2h481.1l-74-111.1zm1019.7 875.9h458.7l609.7-645.5v-411.2h-804.2zm-1421.7-1448.2l421.5 337.3 96.2-1153.7-396.9-396.9h-566.1v661.9l275.7 551.4zm2216.2-469.6c-81.6 0-65.3 0-146.8 0-81.5 0-168.2 0-168.2 0 0 0-166.4 665.3-166.4 665.3h289l192.4-320.6zm-1680.5 1794.1c0 0 236.1 354.2 246.3 369.4 0.3-0.2 430.4-215.2 430.4-215.2l573.2-2293v-790.3h-632.5l-426.6 639.9z"/>
			<path id="Layer 1" fill-rule="evenodd" class="s1" d="m4186.9-76.1l322.1 1133.7-4597.9 1305.9-322-1133.7z"/>
			<path id="Layer 1 copy" fill-rule="evenodd" class="s2" d="m4485.4 974.9l322.1 1133.7-4597.9 1305.9-322-1133.7z"/>
			<path id="Layer 1 copy 2" fill-rule="evenodd" class="s3" d="m4784 2025.8l322 1133.7-4597.9 1306-322-1133.8z"/>
			<path id="Layer 1 copy 3" fill-rule="evenodd" class="s4" d="m5082.5 3076.8l322 1133.7-4597.9 1305.9-322-1133.7z"/>
		</g>
	</g>
</svg>